# xmcd CD database file
#
# Track frame offsets:
#	150
#	14716
#	26014
#	42805
#	61723
#	74133
#	96987
#	112333
#	126391
#	136569
#
# Disc length: 2038 seconds
#
# Revision: 0
# Processed by: cddbd v1.5.2PL0 Copyright (c) Steve Scherf et al.
# Submitted via: CDex 1.79
#
DISCID=9307f40a
DTITLE=Dave Owens - Everybody Loves Somebody
DYEAR=1900
DGENRE=Country
TTITLE0=I Can`t Get Over You
TTITLE1=Undo The Right
TTITLE2=Strangers
TTITLE3=Everybody Loves Somebody
TTITLE4=You Can`t Get The Hell Out Of Texas
TTITLE5=Rainy Night In Georgia
TTITLE6=Gentle Hands Of Love
TTITLE7=When She Does Me Right (She Does You Wrong)
TTITLE8=You Don`t Have To Be A Baby To Cry
TTITLE9=A Wound Time Can`t Erase
EXTD=
EXTT0=
EXTT1=
EXTT2=
EXTT3=
EXTT4=
EXTT5=
EXTT6=
EXTT7=
EXTT8=
EXTT9=
PLAYORDER=
